PathFileType	4	(X/Y/Z)	/Users/itak/Documents/Research/Walk-IL/dataset/trc/00101_00007.trc
DataRate	CameraRate	NumFrames	NumMarkers	Units	OrigDataRate	OrigDataStartFrame	OrigNumFrames
100.000000	100.000000	4	53	mm	100.000000	507	580
Frame#	Time	RPSI			LPSI			L3			STRN			T10			C7			CLAV			RBAK			LBAK			LSHO			LUPA			LAEL			LAOL			LWTS			LWPS			LFRA			LIFD			LHPS			LHTS			RSHO			RUPA			RAEL			RAOL			RWTS			RWPS			RFRA			RIFD			RHTS			RHPS			RBHD			LFHD			RFHD			LBHD			LHIP			RHIP			RASI			LASI			LKNE			LTHI			LANK			LTIP			LTOE			LMT1			LMT5			LHEE			RKNE			RTHI			RANK			RTIP			RTOE			RMT1			RMT5			RHEE			
		X1	Y1	Z1	X2	Y2	Z2	X3	Y3	Z3	X4	Y4	Z4	X5	Y5	Z5	X6	Y6	Z6	X7	Y7	Z7	X8	Y8	Z8	X9	Y9	Z9	X10	Y10	Z10	X11	Y11	Z11	X12	Y12	Z12	X13	Y13	Z13	X14	Y14	Z14	X15	Y15	Z15	X16	Y16	Z16	X17	Y17	Z17	X18	Y18	Z18	X19	Y19	Z19	X20	Y20	Z20	X21	Y21	Z21	X22	Y22	Z22	X23	Y23	Z23	X24	Y24	Z24	X25	Y25	Z25	X26	Y26	Z26	X27	Y27	Z27	X28	Y28	Z28	X29	Y29	Z29	X30	Y30	Z30	X31	Y31	Z31	X32	Y32	Z32	X33	Y33	Z33	X34	Y34	Z34	X35	Y35	Z35	X36	Y36	Z36	X37	Y37	Z37	X38	Y38	Z38	X39	Y39	Z39	X40	Y40	Z40	X41	Y41	Z41	X42	Y42	Z42	X43	Y43	Z43	X44	Y44	Z44	X45	Y45	Z45	X46	Y46	Z46	X47	Y47	Z47	X48	Y48	Z48	X49	Y49	Z49	X50	Y50	Z50	X51	Y51	Z51	X52	Y52	Z52	X53	Y53	Z53	

508	5.07	360.1396179199219	1124.54736328125	-261.3846435546875	359.5661010742188	1126.921875	-396.4501647949219	353.4627685546875	1158.119506835938	-330.3882751464844	561.0816650390625	1363.193359375	-329.2132568359375	309.2309875488281	1304.16845703125	-330.0811767578125	334.0433349609375	1597.875366210938	-341.3677062988281	520.279541015625	1496.810302734375	-331.6822814941406	286.8042297363281	1410.490356445312	-254.9592742919922	327.4330139160156	1578.328857421875	-443.1603698730469	415.8148193359375	1568.241577148438	-510.0171508789062	404.1052856445312	1435.759155273438	-580.1776733398438	440.7759399414062	1218.755004882812	-602.8154296875	377.3454284667969	1197.479736328125	-545.2811889648438	587.6666870117188	986.8624877929688	-564.8869018554688	510.9880065917969	943.7510986328125	-586.2348022460938	475.3475646972656	1106.968872070312	-607.2470703125	638.7725219726562	800.0464477539062	-539.7362060546875	554.1409301757812	875.732177734375	-587.3862915039062	619.8634033203125	901.9553833007812	-575.9006958007812	389.793212890625	1577.986938476562	-158.3460693359375	374.9788513183594	1503.597412109375	-95.69171905517578	367.3410034179688	1209.403686523438	-79.07136535644531	366.7363891601562	1209.52490234375	-175.659423828125	506.5891418457031	964.109619140625	-87.97562408447266	431.2314147949219	948.9937744140625	-60.4136848449707	389.5434875488281	1136.256591796875	-63.61696243286133	525.76904296875	768.5401611328125	-107.5884246826172	532.2154541015625	854.1714477539062	-83.62062835693359	464.6938781738281	848.2017822265625	-56.82672882080078	370.8610534667969	1771.490966796875	-260.8725280761719	525.0548706054688	1842.703125	-401.6805114746094	529.0380859375	1850.801147460938	-272.2913818359375	356.5487060546875	1766.479125976562	-395.8138122558594	454.28515625	1039.99267578125	-503.90283203125	488.8536071777344	1028.791259765625	-145.2682495117188	568.2861938476562	1103.302734375	-197.4263153076172	560.7427368164062	1108.97412109375	-464.8693237304688	472.8861083984375	538.5487060546875	-476.2369384765625	452.7904968261719	684.2083740234375	-502.5155334472656	353.7054443359375	35.29004669189453	-464.7102661132812	366.5993957519531	292.4048461914062	-499.30029296875	587.0504150390625	36.67176055908203	-411.08154296875	505.6505737304688	43.3797607421875	-377.60205078125	478.1529846191406	33.20702362060547	-493.9359130859375	286.1957092285156	38.36122512817383	-401.3407287597656	459.923095703125	537.5476684570312	-190.509033203125	499.7493286132812	816.0261840820312	-158.1894836425781	341.9971923828125	30.46607208251953	-220.3861389160156	427.8843994140625	405.7998657226562	-183.1573486328125	575.3992919921875	40.06472015380859	-277.1104125976562	512.1400756835938	33.63755035400391	-316.6136779785156	475.7538146972656	38.16054534912109	-199.4334411621094	284.5245666503906	35.07271194458008	-267.4546813964844	
509	5.08	360.3455810546875	1124.539428710938	-262.07080078125	360.1076354980469	1126.895263671875	-397.1156311035156	353.8052978515625	1158.096313476562	-331.1184997558594	561.4287109375	1363.146850585938	-329.4242248535156	309.6572570800781	1304.1123046875	-330.9149169921875	334.3804626464844	1597.826049804688	-342.149169921875	520.5921630859375	1496.73046875	-331.9434204101562	286.9903259277344	1410.408813476562	-255.9203643798828	328.1081237792969	1578.278564453125	-443.9337768554688	416.6747131347656	1568.181518554688	-510.601806640625	405.0048522949219	1435.63134765625	-580.7030029296875	441.2016296386719	1218.49609375	-603.0787963867188	377.5844116210938	1197.565185546875	-545.5684204101562	585.7505493164062	985.0471801757812	-564.9881591796875	508.6180419921875	942.8062133789062	-586.4545288085938	474.8266906738281	1106.413696289062	-607.437744140625	634.4678955078125	797.322021484375	-539.6481323242188	551.0028076171875	874.2528686523438	-587.5247192382812	616.9990234375	899.73046875	-575.9421997070312	389.6484375	1577.899780273438	-158.9593963623047	374.5976257324219	1503.503540039062	-96.36737823486328	366.9617309570312	1209.252685546875	-79.87833404541016	366.5362548828125	1209.408813476562	-176.4808197021484	506.9012451171875	964.367431640625	-88.53550720214844	431.5054626464844	948.9559326171875	-61.25354385375977	389.2383117675781	1136.113159179688	-64.41645812988281	526.931396484375	768.9171142578125	-108.3224411010742	532.9354248046875	854.5415649414062	-84.20137786865234	465.3193969726562	848.2507934570312	-57.71312713623047	371.1971130371094	1771.463012695312	-261.374267578125	525.4325561523438	1842.636108398438	-402.1445007324219	529.35693359375	1850.815673828125	-272.7699584960938	356.93115234375	1766.37158203125	-396.3163757324219	454.8668823242188	1039.91943359375	-504.2629699707031	488.7813110351562	1028.800048828125	-145.6503753662109	568.3120727539062	1103.291381835938	-197.6607818603516	561.3433227539062	1108.8232421875	-465.0788879394531	472.9754333496094	538.4727783203125	-476.4091491699219	453.0862426757812	684.1279296875	-502.8032836914062	353.7090454101562	35.27337646484375	-464.7324829101562	366.5897521972656	292.3855590820312	-499.4706115722656	587.029541015625	36.68606948852539	-411.0985412597656	505.6366577148438	43.38735580444336	-377.61279296875	478.146728515625	33.19215774536133	-493.949462890625	286.1791687011719	38.34498596191406	-401.3555908203125	460.0594482421875	537.545654296875	-190.7251739501953	500.0523376464844	816.1080932617188	-158.5744934082031	341.9772644042969	30.46101570129395	-220.4026184082031	427.9573669433594	405.7998046875	-183.3528594970703	575.3814086914062	40.10068130493164	-277.0846252441406	512.1278686523438	33.6336555480957	-316.60595703125	475.7458190917969	38.16462326049805	-199.4388732910156	284.50390625	35.05894088745117	-267.4866333007812	
510	5.09	360.5328369140625	1124.524658203125	-262.7409362792969	360.6347351074219	1126.858154296875	-397.7602844238281	354.1499328613281	1158.058349609375	-331.8235473632812	561.7696533203125	1363.103881835938	-329.6376953125	310.0582275390625	1304.06005859375	-331.7257690429688	334.7038269042969	1597.773803710938	-342.9328918457031	520.8756103515625	1496.639038085938	-332.1934814453125	287.1362915039062	1410.330200195312	-256.88525390625	328.7742004394531	1578.217529296875	-444.7041320800781	417.5302124023438	1568.110717773438	-511.185546875	405.8941650390625	1435.495971679688	-581.224365234375	441.5786743164062	1218.217651367188	-603.3214111328125	377.7630004882812	1197.646606445312	-545.8211059570312	583.6954345703125	983.1912231445312	-565.081298828125	506.0827026367188	941.8422241210938	-586.6511840820312	474.2177734375	1105.839965820312	-607.6089477539062	629.9561157226562	794.6195678710938	-539.5808715820312	547.6845092773438	872.7626953125	-587.6557006835938	613.9566040039062	897.4638061523438	-575.98974609375	389.4823913574219	1577.807983398438	-159.5734710693359	374.2138977050781	1503.401123046875	-97.03916168212891	366.6565856933594	1209.097290039062	-80.65842437744141	366.4245300292969	1209.264404296875	-177.2646942138672	507.2807312011719	964.6290283203125	-89.0394287109375	431.8451843261719	948.9232788085938	-62.02686309814453	389.0111999511719	1135.967895507812	-65.17706298828125	528.1521606445312	769.2902221679688	-108.9358825683594	533.7125854492188	854.908447265625	-84.69944000244141	466.0236206054688	848.3126220703125	-58.49413299560547	371.5185241699219	1771.423095703125	-261.8507385253906	525.7823486328125	1842.575805664062	-402.6082458496094	529.6681518554688	1850.817993164062	-273.2301025390625	357.2969055175781	1766.253051757812	-396.7937622070312	455.3712768554688	1039.845092773438	-504.6338500976562	488.7196350097656	1028.810180664062	-146.0179595947266	568.3314208984375	1103.28076171875	-197.8897552490234	561.9197387695312	1108.669067382812	-465.27685546875	473.0635986328125	538.4070434570312	-476.569091796875	453.3813781738281	684.0418090820312	-503.0783996582031	353.7087707519531	35.25920104980469	-464.7478637695312	366.5682067871094	292.3667602539062	-499.6365051269531	587.009033203125	36.69757461547852	-411.1099853515625	505.6246032714844	43.39365768432617	-377.6192626953125	478.1402893066406	33.18154525756836	-493.9594116210938	286.1639099121094	38.3287239074707	-401.3638610839844	460.2035827636719	537.5448608398438	-190.9422149658203	500.3716430664062	816.1945190429688	-158.9774017333984	341.9585876464844	30.46162986755371	-220.4236907958984	428.0394592285156	405.8017578125	-183.5488433837891	575.3663940429688	40.13311004638672	-277.0623474121094	512.1190795898438	33.62946319580078	-316.6013793945312	475.7398071289062	38.16833114624023	-199.4482269287109	284.4873046875	35.04642105102539	-267.5237426757812	
511	5.100000000000001	360.6996765136719	1124.501953125	-263.3934020996094	361.1436157226562	1126.810913085938	-398.3861694335938	354.5000915527344	1158.004760742188	-332.5022888183594	562.1002197265625	1363.061889648438	-329.8521118164062	310.4316101074219	1304.013916015625	-332.5132141113281	335.0193786621094	1597.719116210938	-343.7137756347656	521.136962890625	1496.540893554688	-332.4401245117188	287.2626647949219	1410.25537109375	-257.8484191894531	329.4318542480469	1578.150390625	-445.4700927734375	418.3742370605469	1568.033325195312	-511.7691345214844	406.7629089355469	1435.353637695312	-581.7431640625	441.9031982421875	1217.918823242188	-603.5441284179688	377.8843078613281	1197.722290039062	-546.039794921875	581.512451171875	981.3111572265625	-565.1641235351562	503.4021911621094	940.8724365234375	-586.8255004882812	473.5249633789062	1105.25537109375	-607.759033203125	625.2808837890625	791.9819946289062	-539.544189453125	544.2079467773438	871.2824096679688	-587.7830200195312	610.749267578125	895.1770629882812	-576.040771484375	389.3017883300781	1577.71337890625	-160.1869964599609	373.8333435058594	1503.292236328125	-97.70658874511719	366.4229431152344	1208.943359375	-81.41285705566406	366.4190063476562	1209.101318359375	-178.0107421875	507.7178039550781	964.890380859375	-89.48595428466797	432.2461547851562	948.898193359375	-62.72999572753906	388.8611755371094	1135.82568359375	-65.89853668212891	529.40283203125	769.654296875	-109.4235534667969	534.5302734375	855.267822265625	-85.11201477050781	466.7833251953125	848.3881225585938	-59.16709518432617	371.8313293457031	1771.369262695312	-262.3045959472656	526.1094970703125	1842.5224609375	-403.0703125	529.97265625	1850.807373046875	-273.6727294921875	357.6476745605469	1766.1279296875	-397.2477722167969	455.8187255859375	1039.76953125	-505.0147399902344	488.6727600097656	1028.823486328125	-146.3700256347656	568.349365234375	1103.271850585938	-198.1154327392578	562.4799194335938	1108.51904296875	-465.471435546875	473.1529235839844	538.3554077148438	-476.7180786132812	453.6776733398438	683.9484252929688	-503.340576171875	353.70458984375	35.24762344360352	-464.7557067871094	366.5389099121094	292.3468627929688	-499.7940979003906	586.9896240234375	36.70595932006836	-411.1159362792969	505.6146240234375	43.3991813659668	-377.6213989257812	478.1339721679688	33.17449569702148	-493.9659729003906	286.1509094238281	38.31356811523438	-401.3652954101562	460.349609375	537.54638671875	-191.156982421875	500.6854858398438	816.2835693359375	-159.3887634277344	341.9422607421875	30.46694564819336	-220.4469299316406	428.1244506835938	405.8077392578125	-183.7406005859375	575.3548583984375	40.16127014160156	-277.0440673828125	512.1129150390625	33.62588882446289	-316.5994262695312	475.7351684570312	38.17139053344727	-199.4599761962891	284.4750061035156	35.03534698486328	-267.5642700195312	
